<?xml version="1.0" encoding="UTF-8" standalone="no"?>
<!-- Created with Inkscape (http://www.inkscape.org/) -->

<svg
   xmlns:dc="http://purl.org/dc/elements/1.1/"
   xmlns:cc="http://creativecommons.org/ns#"
   xmlns:rdf="http://www.w3.org/1999/02/22-rdf-syntax-ns#"
   xmlns:svg="http://www.w3.org/2000/svg"
   xmlns="http://www.w3.org/2000/svg"
   xmlns:sodipodi="http://sodipodi.sourceforge.net/DTD/sodipodi-0.dtd"
   xmlns:inkscape="http://www.inkscape.org/namespaces/inkscape"
   version="1.0"
   width="410"
   height="160"
   viewBox="-0.52 -0.464 511 330"
   id="svg2"
   xml:space="preserve"
   sodipodi:docname="car.svg"
   inkscape:export-filename="C:\Users\eross\bs\car.png"
   inkscape:export-xdpi="96"
   inkscape:export-ydpi="96"
   inkscape:version="0.92.3 (2405546, 2018-03-11)"><metadata
     id="metadata7"><rdf:RDF><cc:Work
         rdf:about=""><dc:format>image/svg+xml</dc:format><dc:type
           rdf:resource="http://purl.org/dc/dcmitype/StillImage" /></cc:Work></rdf:RDF></metadata><sodipodi:namedview
     pagecolor="#ffffff"
     bordercolor="#666666"
     borderopacity="1"
     objecttolerance="10"
     gridtolerance="10"
     guidetolerance="10"
     inkscape:pageopacity="0"
     inkscape:pageshadow="2"
     inkscape:window-width="716"
     inkscape:window-height="480"
     id="namedview5"
     showgrid="false"
     inkscape:zoom="0.48980079"
     inkscape:cx="251.42675"
     inkscape:cy="226.12822"
     inkscape:window-x="858"
     inkscape:window-y="329"
     inkscape:window-maximized="0"
     inkscape:current-layer="svg2" /><defs
     id="defs4" /><path
     d="m 236.66018,60.379242 c -8.70121,0 -17.13122,3.59041 -24.09222,10.14512 L 162.34811,117.33207 38.283214,138.73583 c -8.452571,1.63865 -13.914267,11.84175 -11.345359,21.98106 l 12.680121,51.3442 h 24.759581 c -2.473968,29.08418 13.978072,48.20987 34.970404,48.20987 20.992339,0 37.647159,-21.63686 34.970399,-48.20987 h 203.04858 c -2.95634,28.99867 14.43569,48.20987 34.9704,48.20987 20.53472,0 37.64493,-21.6583 34.97042,-48.20987 h 50.62032 c 4.72352,0 8.77598,-4.92733 8.77597,-10.97 v -58.06628 c 0,-5.53058 -3.29891,-10.12932 -7.60807,-10.84617 L 372.90461,117.33207 338.76844,75.102032 c -7.4582,-9.42239 -17.65721,-14.51795 -28.43015,-14.72279 z m 36.23841,17.81581 h 39.60866 c 5.88367,0 11.26739,3.77257 14.58213,9.81519 l 9.77704,18.228218 c 2.41892,5.10254 -0.21514,10.06888 -4.73837,10.96994 h -59.22946 z m -42.61184,0.0825 h 31.39995 v 38.930858 h -80.51868 l 36.03823,-33.487148 c 3.72908,-3.48219 8.43987,-5.44372 13.0805,-5.44371 z"
     id="path12"
     style="fill:#ffffff;stroke-width:0.58729172"
     inkscape:export-xdpi="96"
     inkscape:export-ydpi="96"
     inkscape:connector-curvature="0" /></svg>